<svg width="24" height="24" viewBox="0 0 24 24" fill="none" xmlns="http://www.w3.org/2000/svg">
<path d="M4 5.99951H20L18.42 20.2195C18.3658 20.7089 18.1331 21.1611 17.7663 21.4895C17.3994 21.818 16.9244 21.9995 16.432 21.9995H7.568C7.07564 21.9995 6.60056 21.818 6.23375 21.4895C5.86693 21.1611 5.63416 20.7089 5.58 20.2195L4 5.99951Z" stroke="#9B9B9B" stroke-width="2" stroke-linecap="round" stroke-linejoin="round"/>
<path d="M7.34109 3.14602C7.50285 2.80299 7.7588 2.51302 8.0791 2.30993C8.3994 2.10685 8.77084 1.99902 9.15009 1.99902H14.8421C15.2215 1.99883 15.5932 2.10657 15.9137 2.30967C16.2342 2.51276 16.4903 2.80284 16.6521 3.14602L17.9961 5.99902H5.99609L7.34109 3.14602Z" stroke="#9B9B9B" stroke-width="2" stroke-linecap="round" stroke-linejoin="round"/>
<path d="M1.99805 5.99951H21.998" stroke="#9B9B9B" stroke-width="2" stroke-linecap="round" stroke-linejoin="round"/>
<path d="M10 10.999V15.999" stroke="#9B9B9B" stroke-width="2" stroke-linecap="round" stroke-linejoin="round"/>
<path d="M13.998 10.999V15.999" stroke="#9B9B9B" stroke-width="2" stroke-linecap="round" stroke-linejoin="round"/>
</svg>
